<svg width="30" height="30" viewBox="-2.9 -2.6 21 21" xmlns="http://www.w3.org/2000/svg" fill="#2faf64">
	<path fill-rule="evenodd" clip-rule="evenodd" d="M 7.5 1 z m 0 12 a 5.5 5.5 0 1 1 0 -11 a 5.5 5.5 0 0 1 0 11 z m 1.55 -8.42 a 1.84 1.84 0 0 0 -0.61 -0.42 A 2.25 2.25 0 0 0 7.53 4 a 2.16 2.16 0 0 0 -0.88 0.17 c -0.239 0.1 -0.45 0.254 -0.62 0.45 a 1.89 1.89 0 0 0 -0.38 0.62 a 3 3 0 0 0 -0.15 0.72 h 1.23 a 0.84 0.84 0 0 1 0.506 -0.741 a 0.72 0.72 0 0 1 0.304 -0.049 a 0.86 0.86 0 0 1 0.27 0 a 0.64 0.64 0 0 1 0.22 0.14 a 0.6 0.6 0 0 1 0.16 0.22 a 0.73 0.73 0 0 1 0.06 0.3 c 0 0.173 -0.037 0.343 -0.11 0.5 a 2.4 2.4 0 0 1 -0.27 0.46 l -0.35 0.42 c -0.12 0.13 -0.24 0.27 -0.35 0.41 a 2.33 2.33 0 0 0 -0.27 0.45 a 1.18 1.18 0 0 0 -0.1 0.5 v 0.66 H 8 v -0.49 a 0.94 0.94 0 0 1 0.11 -0.42 a 3.09 3.09 0 0 1 0.28 -0.41 l 0.36 -0.44 a 4.29 4.29 0 0 0 0.36 -0.48 a 2.59 2.59 0 0 0 0.28 -0.55 a 1.91 1.91 0 0 0 0.11 -0.64 a 2.18 2.18 0 0 0 -0.1 -0.67 a 1.52 1.52 0 0 0 -0.35 -0.55 z M 6.8 9.83 h 1.17 V 11 H 6.8 V 9.83 z"/>
</svg>